<!DOCTYPE svg PUBLIC "-//W3C//DTD SVG 1.1//EN" "http://www.w3.org/Graphics/SVG/1.1/DTD/svg11.dtd">

<!-- Uploaded to: SVG Repo, www.svgrepo.com, Transformed by: SVG Repo Mixer Tools -->
<svg version="1.1" id="Layer_1" xmlns="http://www.w3.org/2000/svg" xmlns:xlink="http://www.w3.org/1999/xlink" viewBox="0 0 511.999 511.999" xml:space="preserve" width="256px" height="256px" fill="#000000">
strokeLinejoin
<g id="SVGRepo_bgCarrier" stroke-width="0"/>

<g id="SVGRepo_tracerCarrier" strokeLinecap="round" stroke-linejoin="round"/>

<g id="SVGRepo_iconCarrier"> <path style="fill:#333E48;" d="M86.42,503.952c-3.065,0-4.405-2.219-2.977-4.93l78.397-148.931c1.427-2.712,4.815-3.763,7.526-2.336 l21.697,11.423c2.712,1.427,3.763,4.814,2.336,7.527l-69.652,132.316c-1.427,2.712-5.103,4.932-8.168,4.932H86.42V503.952z"/> <polygon style="opacity:0.1;enable-background:new ;" points="164.435,345.16 130.111,410.364 170.415,410.364 195.993,361.774 "/> <path style="fill:#333E48;" d="M425.578,503.952c3.065,0,4.405-2.219,2.977-4.93l-78.397-148.931 c-1.427-2.712-4.814-3.763-7.526-2.336l-21.696,11.423c-2.713,1.427-3.764,4.814-2.336,7.527l69.651,132.318 c1.428,2.709,5.103,4.93,8.168,4.93h29.16V503.952z"/> <polygon style="opacity:0.1;enable-background:new ;" points="347.564,345.16 381.888,410.364 341.583,410.364 316.006,361.774 "/> <path style="fill:#FF5959;" d="M397.499,30.337c0-12.26-10.031-22.289-22.29-22.289H136.782c-12.26,0-22.289,10.031-22.289,22.289 v337.676c0,12.26,10.031,22.29,22.289,22.29h238.425c12.261,0,22.29-10.031,22.29-22.29V30.337H397.499z"/> <circle style="opacity:0.2;enable-background:new ;" cx="169.627" cy="325.488" r="25.076"/> <circle style="opacity:0.2;enable-background:new ;" cx="342.366" cy="325.488" r="25.076"/> <path style="fill:#FFFFFF;" d="M367.448,129.057c0-9.194-7.523-16.717-16.717-16.717H161.267c-9.194,0-16.717,7.523-16.717,16.717 v117.406c0,9.195,7.523,16.718,16.717,16.718h189.464c9.194,0,16.717-7.523,16.717-16.718V129.057z"/> <path style="fill:#A4A9AD;" d="M307.265,263.18c0-28.315-22.952-51.267-51.266-51.267c-28.315,0-51.266,22.954-51.266,51.267 H307.265z"/> <path style="opacity:0.2;enable-background:new ;" d="M350.731,112.339H161.267c-9.194,0-16.717,7.523-16.717,16.717v27.73 c0-9.194,7.523-16.717,16.717-16.717h189.464c9.194,0,16.717,7.523,16.717,16.717v-27.73 C367.448,119.862,359.926,112.339,350.731,112.339z"/> <path style="fill:#333E48;" d="M367.448,58.196c0-9.194-7.523-16.717-16.717-16.717H161.267c-9.194,0-16.717,7.523-16.717,16.717 v7.067c0,9.194,7.523,16.717,16.717,16.717h189.464c9.194,0,16.717-7.523,16.717-16.717V58.196z"/> <path style="opacity:0.2;enable-background:new ;" d="M350.731,41.479H161.267c-9.194,0-16.717,7.523-16.717,16.717v7.067 c0,0.95,0.099,1.875,0.252,2.782c1.337-7.88,8.218-13.936,16.465-13.936h189.464c8.245,0,15.129,6.056,16.465,13.936 c0.153-0.908,0.252-1.833,0.252-2.782v-7.067C367.448,49.002,359.926,41.479,350.731,41.479z"/> <g> <circle style="fill:#FFB819;" cx="169.627" cy="313.599" r="25.076"/> <circle style="fill:#FFB819;" cx="342.366" cy="313.599" r="25.076"/> </g> <path style="fill:#D1D3D3;" d="M305.253,390.303v-28.425c0-9.194-7.523-16.717-16.717-16.717h-65.078 c-9.194,0-16.717,7.523-16.717,16.717v28.425H305.253z"/> <rect x="206.744" y="359.729" style="opacity:0.4;fill:#A4A9AD;enable-background:new ;" width="98.517" height="16.096"/> <path style="fill:#FFFFFF;" d="M287.916,316.353h-63.84c-4.445,0-8.048-3.602-8.048-8.048s3.603-8.048,8.048-8.048h63.84 c4.446,0,8.048,3.602,8.048,8.048S292.361,316.353,287.916,316.353z"/> <path style="fill:#1E252B;" d="M161.267,90.028h189.464c13.656,0,24.765-11.11,24.765-24.765v-7.067 c0-13.656-11.109-24.765-24.765-24.765H161.267c-13.656,0-24.765,11.11-24.765,24.765v7.067 C136.502,78.918,147.611,90.028,161.267,90.028z M152.598,58.196c0-4.78,3.889-8.669,8.669-8.669h189.464 c4.78,0,8.669,3.889,8.669,8.669v7.067c0,4.78-3.889,8.669-8.669,8.669H161.267c-4.78,0-8.669-3.889-8.669-8.669V58.196z M342.365,280.477c-18.264,0-33.124,14.86-33.124,33.124c0,18.264,14.86,33.124,33.124,33.124c18.265,0,33.124-14.86,33.124-33.124 C375.489,295.335,360.631,280.477,342.365,280.477z M342.365,330.629c-9.389,0-17.028-7.639-17.028-17.028 c0-9.389,7.639-17.028,17.028-17.028c9.389,0,17.028,7.639,17.028,17.028C359.394,322.99,351.755,330.629,342.365,330.629z M435.677,495.274l-51.703-98.219c12.467-3.771,21.573-15.36,21.573-29.041V30.337C405.546,13.609,391.937,0,375.208,0H136.782 c-16.728,0-30.337,13.609-30.337,30.337v337.676c0,13.684,9.108,25.275,21.578,29.043l-51.7,98.213 c-1.997,3.789-1.985,8.047,0.031,11.389c2.017,3.344,5.781,5.341,10.065,5.341h29.158c6.044,0,12.475-3.882,15.29-9.231 l11.888-22.583h226.487l11.888,22.583c2.815,5.348,9.245,9.231,15.29,9.231h29.158c4.285,0,8.048-1.996,10.065-5.341 C437.661,503.317,437.672,499.059,435.677,495.274z M122.541,368.013V30.337c0-7.853,6.389-14.242,14.242-14.242h238.425 c7.854,0,14.243,6.389,14.243,14.242v337.676c0,7.853-6.389,14.243-14.243,14.243H313.3v-20.377 c0-13.656-11.11-24.765-24.765-24.765h-65.078c-13.656,0-24.765,11.11-24.765,24.765v20.377h-61.91 C128.929,382.255,122.541,375.866,122.541,368.013z M326.164,398.351l10.551,20.045H175.282l10.551-20.045H326.164z M214.788,382.255v-20.377c0-4.78,3.889-8.669,8.669-8.669h65.078c4.78,0,8.669,3.889,8.669,8.669v20.377H214.788z M116.673,495.179 c-0.234,0.271-0.853,0.646-1.202,0.725H94.179l51.352-97.553h22.113L116.673,495.179z M151.229,464.089l15.581-29.599h178.379 l15.582,29.599L151.229,464.089L151.229,464.089z M396.526,495.904c-0.349-0.079-0.968-0.454-1.202-0.725l-50.971-96.828h22.113 l51.351,97.553L396.526,495.904L396.526,495.904z M161.267,271.228h189.464c13.656,0,24.765-11.11,24.765-24.766V129.057 c0-13.656-11.109-24.765-24.765-24.765H161.267c-13.656,0-24.765,11.11-24.765,24.765v117.406 C136.502,260.118,147.611,271.228,161.267,271.228z M152.598,129.057c0-4.78,3.889-8.669,8.669-8.669h189.464 c4.78,0,8.669,3.889,8.669,8.669v117.406c0,4.78-3.889,8.67-8.669,8.67H161.267c-4.78,0-8.669-3.89-8.669-8.67V129.057z M169.626,346.725c18.264,0,33.123-14.86,33.123-33.124c0-18.265-14.859-33.124-33.123-33.124s-33.124,14.86-33.124,33.124 C136.502,331.865,151.36,346.725,169.626,346.725z M169.626,296.573c9.388,0,17.027,7.639,17.027,17.028 c0,9.389-7.639,17.028-17.027,17.028c-9.39,0-17.028-7.639-17.028-17.028C152.598,304.212,160.236,296.573,169.626,296.573z"/> </g>

</svg>